<svg xmlns="http://www.w3.org/2000/svg" viewBox="0 0 169.13 184.06"><defs><style>.cls-1,.cls-10,.cls-2{fill:#f68520;}.cls-1,.cls-4{stroke:#313333;}.cls-1,.cls-10,.cls-11,.cls-2,.cls-4,.cls-8{stroke-miterlimit:10;}.cls-1,.cls-2{stroke-width:4px;}.cls-10,.cls-11,.cls-2{stroke:#323333;}.cls-10,.cls-11,.cls-2,.cls-4,.cls-8{stroke-linecap:round;}.cls-3{fill:#313333;}.cls-11,.cls-4,.cls-8{fill:none;}.cls-4{stroke-width:3px;}.cls-5{fill:#e16126;}.cls-6{fill:#e05d26;}.cls-7{fill:#e2e2e2;}.cls-8{stroke:#e2e2e2;}.cls-10,.cls-11,.cls-8{stroke-width:2px;}.cls-9{fill:#fff;}.cls-12{font-size:21px;fill:#231f20;font-family:ArialRoundedMTBold, Arial Rounded MT Bold;letter-spacing:0.53em;}.cls-13{letter-spacing:0.52em;}.cls-14{letter-spacing:0.53em;}.cls-15{fill:#074161;}</style></defs><title>pivotalyIcon</title><g id="Layer_2" data-name="Layer 2"><g id="cat3"><path class="cls-1" d="M57.5,18.77S42.51.52,35.15,2.1s-5,34.35-5,34.35"/><path class="cls-1" d="M88.07,17.22S105.4.47,109.86,3.11s4.91,26.6,4.91,26.6"/><circle class="cls-2" cx="75.57" cy="76.78" r="60.75"/><circle class="cls-3" cx="54.61" cy="64.16" r="6.84"/><circle class="cls-3" cx="86.16" cy="64.16" r="6.84"/><path class="cls-4" d="M64.47,78.63S63,85.9,70,86s7.41-7.41,7.41-7.41"/><circle class="cls-5" cx="41.97" cy="76.16" r="5.81"/><circle class="cls-6" cx="98.81" cy="76.16" r="5.81"/><circle class="cls-7" cx="42.52" cy="40.63" r="3.22"/><path class="cls-8" d="M37.58,46.53S30.93,52.7,29.79,60"/><circle class="cls-3" cx="97.25" cy="64.67" r="17.62"/><path class="cls-9" d="M99.14,50,83.5,70.47s.49,3.62,5.09,6.07L106.92,54S104.79,51,99.14,50Z"/><path class="cls-9" d="M108.48,56.75,92,77.52s.39,1.18,4,1.47l14.5-18.12S111.42,59.4,108.48,56.75Z"/><circle class="cls-10" cx="116.22" cy="63.27" r="2.65"/><path class="cls-11" d="M116.22,65.92v69.23s.13,9.2-5.56,9.61-6-7.23-6-7.23"/></g><g id="fonts"><text class="cls-12" transform="translate(0 175.55)">pi<tspan class="cls-13" x="41.2" y="0">v</tspan><tspan class="cls-14" x="63.5" y="0">otaly</tspan></text><circle class="cls-15" cx="69.86" cy="169.99" r="14.07"/><path class="cls-9" d="M71.37,158.29,58.88,174.62s.39,2.89,4.07,4.85l14.63-18S75.88,159.08,71.37,158.29Z"/><path class="cls-9" d="M78.83,163.67,65.69,180.25s.31.94,3.21,1.17L80.47,167S81.18,165.78,78.83,163.67Z"/></g></g></svg>