<svg xmlns="http://www.w3.org/2000/svg" viewBox="0 0 125.49 145.77"><defs><style>.cls-1,.cls-10,.cls-2{fill:#f68520;}.cls-1,.cls-4{stroke:#313333;}.cls-1,.cls-10,.cls-11,.cls-2,.cls-4,.cls-8{stroke-miterlimit:10;}.cls-1,.cls-2{stroke-width:4px;}.cls-10,.cls-11,.cls-2{stroke:#323333;}.cls-10,.cls-11,.cls-2,.cls-4,.cls-8{stroke-linecap:round;}.cls-3{fill:#313333;}.cls-11,.cls-4,.cls-8{fill:none;}.cls-4{stroke-width:3px;}.cls-5{fill:#e16126;}.cls-6{fill:#e05d26;}.cls-7{fill:#e2e2e2;}.cls-8{stroke:#e2e2e2;}.cls-10,.cls-11,.cls-8{stroke-width:2px;}.cls-9{fill:#fff;}</style></defs><title>pivotaly</title><g id="Layer_2" data-name="Layer 2"><g id="cat3"><path class="cls-1" d="M44.68,18.77S29.69.52,22.33,2.1s-5,34.35-5,34.35" style="fill:none;"/><path class="cls-1" d="M75.25,17.22S92.58.47,97,3.11s4.91,26.6,4.91,26.6" style="fill:none;"/><circle class="cls-2" cx="62.75" cy="76.78" r="60.75" style="fill:none;"/><circle class="cls-3" cx="41.79" cy="64.16" r="6.84"/><circle class="cls-3" cx="73.34" cy="64.16" r="6.84" style="fill:none;"/><path class="cls-4" d="M51.65,78.63S50.14,85.9,57.13,86s7.41-7.41,7.41-7.41"/><circle class="cls-5" cx="29.15" cy="76.16" r="5.81" style="fill:none;"/><circle class="cls-6" cx="85.99" cy="76.16" r="5.81" style="fill:none;"/><circle class="cls-7" cx="29.69" cy="40.63" r="3.22"/><path class="cls-8" d="M24.76,46.53S18.11,52.7,17,60"/><circle class="cls-3" cx="84.43" cy="64.67" r="17.62" stroke="#fff" style="fill:none;"/><path class="cls-9" d="M86.32,50,70.68,70.47s.49,3.62,5.09,6.07L94.09,54S92,51,86.32,50Z"/><path class="cls-9" d="M95.66,56.75,79.2,77.52s.39,1.18,4,1.47l14.5-18.12S98.6,59.4,95.66,56.75Z"/><circle class="cls-10" cx="103.4" cy="63.27" r="2.65" style="fill:none;"/><path class="cls-11" d="M103.4,65.92v69.23s.13,9.2-5.56,9.61-6-7.23-6-7.23"/></g></g></svg>